<svg width="320" height="120" viewBox="0 0 320 120" xmlns="http://www.w3.org/2000/svg" role="img" aria-labelledby="title desc">
  <title id="title">Whatis logo</title>
  <desc id="desc">Teal map pin with a stylised brain and the text Whatis</desc>
  <g fill="none" fill-rule="evenodd">
    <path d="M72 6c-33.137 0-60 26.863-60 60 0 44.16 60 96 60 96s60-51.84 60-96c0-33.137-26.863-60-60-60z" fill="#0C9BB4"/>
    <path d="M72 22c-24.3 0-44 19.7-44 44 0 30.46 44 66 44 66s44-35.54 44-66c0-24.3-19.7-44-44-44z" fill="#F7FCFE"/>
    <path d="M72 34c-12.15 0-22 9.85-22 22v11.6c0 4.732-2.927 8.982-7.342 10.61l-.658.246c5.25 7.012 11.736 13.61 19.458 19.74l1.542 1.19 1.542-1.19c7.722-6.13 14.208-12.728 19.458-19.74l-.658-.246C94.927 76.582 92 72.332 92 67.6V56c0-12.15-9.85-22-22-22z" fill="#0C9BB4"/>
    <path d="M72 42c-7.732 0-14 6.268-14 14v11.6c0 6.307-3.394 12.07-8.858 15.146 6.034 6.847 12.928 13.12 20.686 18.78 7.758-5.66 14.652-11.933 20.686-18.78C89.394 79.67 86 73.907 86 67.6V56c0-7.732-6.268-14-14-14z" fill="#F7FCFE"/>
    <path d="M72 44c-6.627 0-12 5.373-12 12v5.2c6.228.343 11.2 5.51 11.2 11.84v9.278c.265.19.532.377.8.562.268-.185.535-.372.8-.562v-9.278c0-6.33 4.972-11.497 11.2-11.84V56c0-6.627-5.373-12-12-12z" fill="#0C9BB4"/>
    <path d="M72 54c-2.21 0-4 1.79-4 4v8.4c0 5.739-2.54 11.046-6.52 14.662 3.487 3.28 7.28 6.389 11.35 9.302 4.07-2.913 7.863-6.022 11.35-9.302-3.98-3.616-6.52-8.923-6.52-14.662V58c0-2.21-1.79-4-4-4z" fill="#0C9BB4"/>
  </g>
  <text x="140" y="78" font-family="Poppins, 'Segoe UI', Helvetica, Arial, sans-serif" font-size="56" font-weight="600" fill="#10324B">
    Whatis
  </text>
</svg>


